<svg id="Layer_1" data-name="Layer 1" xmlns="http://www.w3.org/2000/svg" viewBox="0 0 500 562"><defs><style>.cls-1{fill:#fff;}</style></defs><title>Artboard 4</title><path class="cls-1" d="M278.36,294.84c111.11,0,222.2-70.77,221.64-143.37C499.43,77.66,398.39,2,252.86,2,129.09,2,0,56.83,0,137.15c0,97.74,288,132.34,288,84.24,0-37.66-151.31-39.51-151.31-122.76,0-74.34,145-112.22,230-30.05-24.37,18.28-42.14,30.92-55.48,41.37-32-28.63-90-32.87-90.77-9.69,0,31.23,150.56,32.76,150.56,121.06,0,35.73-45.77,73.54-92.67,73.54h0ZM225,498.73H215.3V374.18c9.77,0,18.9-1.25,25.2,3.53a14.47,14.47,0,0,1,5.29,11.52v94.49a14.35,14.35,0,0,1-12,14.49,62.22,62.22,0,0,1-8.74.55ZM199,296.45V515.06h34.9c14.32,0,28.74-14.18,28.74-28.72V387.41c0-9.34-4.57-17-11.14-22.43-10.73-8.78-20.94-7.6-36.13-7.6V296.45c0-1-.32-1.33-1.33-1.33H200.29c-1,0-1.32.32-1.32,1.33ZM96.41,358.72V463c0,21.83,10.27,36.83,28.31,47.23,3.36,1.95,14,6.2,19,6.2,0,10.15,1.41,19.21-5,24.58-7,5.89-14.78,4.54-25.49,4.54v16.35c15.61,0,26.86,2.11,37.89-8.94,4-4,9.41-12.08,9.41-19.75V357.38H143.71V498.73c-7.54,0-14-4.3-18.46-8.48-1.15-1.08-1.35-1.74-2.42-2.89a45.49,45.49,0,0,1-4.76-6.29,30.49,30.49,0,0,1-5.29-16.33c0-33.57-.45-69.6,0-102.94.08-5.62,2.06-4.43-15-4.43-1,0-1.32.32-1.32,1.34Zm339.91,24.73V515.08h16.81V385.23c0-3.4,2.61-7.52,4.54-9.15,5.16-4.43,11.86-6.53,17.84-2.6,3.91,2.57,7.68,6.73,7.68,12.2V515.08H500V383.9a29.76,29.76,0,0,0-2.8-11.3c-4.15-9-15.33-17.82-25.93-17.82s-18.15.64-26.22,8.72c-5.36,5.4-8.73,11.59-8.73,20M0,389.63V413c0,1.76,21.25,21.43,24,24.17l18.13,18.1c1.23,1.24,6.1,4.83,6.1,6.31v24.3c0,8.68-7.77,15.45-14.6,15.45h-3.1c-7.16,0-14.14-7.31-14.14-14.59v-7.94H.08c0,10.61,0,20.72,7.82,28.83,8.38,8.7,15.34,10.47,27.08,10.47,15,0,29.15-15.46,29.15-30.93V453.66c0-1.56-21-21.18-24-24.17L22.23,411.61c-7.71-7.73-5.85-2.39-5.85-24.61,0-8.93,7.05-15.45,13.25-15.45,5.67,0,8.55,0,13.59,4.94,5.93,5.77,5,9.34,5,17.56H64.11c0-12,.36-20.25-9-29.48-9.08-9-14.34-9.83-26.43-9.83-4.81,0-9.2,1.88-12.37,3.53C4.49,364.39,0,376.72,0,389.63H0Zm298.37-1.76V515.11h16.81V393.65a18.35,18.35,0,0,1,7.22-14.41c7.37-5.74,13.11-5.06,23.26-5.06V358.72c0-2.19-3.47-1.33-9.28-1.33-12.19,0-20.09,1.5-26.86,7.19-5.6,4.72-11.19,13.17-11.19,23.28Zm77.35-29.15v15.45h7.1V515.08h16.81V358.72c0-1-.32-1.33-1.34-1.33H377.11c-1,0-1.31.32-1.31,1.33Zm7.06-45.93v15.46h16.82V312.79c0-1-.32-1.32-1.33-1.32H384.17c-1,0-1.32.31-1.32,1.32Z"/></svg>